<svg width="75" height="79" viewBox="0 0 75 79" fill="none" xmlns="http://www.w3.org/2000/svg">
<path opacity="0.65" d="M40.3111 0.614136C21.4561 0.614136 6.12269 15.9475 6.12269 34.7938C6.12269 43.8041 9.62672 52.0241 15.3526 58.1364L1.62629 71.8627C0.124568 73.3556 0.124568 75.7794 1.62629 77.2812C2.37277 78.0276 3.35635 78.3965 4.33116 78.3965C5.30596 78.3965 6.28955 78.0276 7.0448 77.2812L20.9555 63.3704L21.1926 63.1333C21.5 63.3353 21.8074 63.5373 22.1235 63.7305C26.9624 66.7867 32.6268 68.6572 38.6952 68.947C39.0553 68.9646 39.4153 68.9734 39.7754 68.9734C39.951 68.9822 40.1355 68.9822 40.3111 68.9822C41.0576 68.9822 41.7953 68.9558 42.533 68.9119C42.7525 68.8943 42.9633 68.8768 43.174 68.868C43.3936 68.8417 43.6132 68.8241 43.8239 68.8065C44.0083 68.7802 44.184 68.7626 44.3596 68.7451C44.7548 68.7011 45.15 68.6397 45.5452 68.5782C45.9755 68.5167 46.3883 68.4465 46.8098 68.3586C62.556 65.3113 74.482 51.4181 74.482 34.7938C74.4907 15.9475 59.1573 0.614136 40.3111 0.614136ZM55.0825 56.8103C54.9068 56.9332 54.7224 57.0562 54.538 57.1616C54.3536 57.2845 54.1779 57.3987 53.9935 57.5041L51.5697 53.9122L59.3154 46.2016H43.8239V61.0783C43.6044 61.1223 43.3936 61.1486 43.174 61.1662C42.9633 61.1925 42.7437 61.2101 42.533 61.2189V44.9106H51.719C52.483 43.3738 52.9045 41.6613 52.9045 39.8698C52.9045 35.0923 49.9186 30.956 45.5364 28.8922C45.9316 26.1698 47.2753 22.1389 51.7804 21.6998C52.9836 21.5856 53.8179 21.9105 54.2043 22.6482C54.538 23.2717 54.4765 24.1148 54.0638 24.6154C53.6949 25.0633 53.1153 25.1687 52.3249 24.9315C51.6311 24.712 50.8934 25.1072 50.6827 25.801C50.4719 26.4947 50.8583 27.2324 51.5521 27.452C53.3788 28.0053 55.0298 27.5837 56.0924 26.2928C57.1814 24.9755 57.3658 22.9644 56.5315 21.41C55.627 19.7062 53.8003 18.8632 51.5258 19.0827C46.0106 19.6184 43.7361 24.0885 43.016 27.9701C41.7953 27.654 40.5043 27.4783 39.1694 27.4783C37.2637 27.4783 35.4546 27.8296 33.7948 28.4619H33.7861C32.056 25.8537 29.9308 21.7261 30.888 18.2133C31.4764 16.0441 32.7234 14.9288 34.2252 15.2186C35.2614 15.4206 36.2977 16.3427 36.166 17.4844C36.1133 17.9323 35.964 18.2572 35.7796 18.345C35.7093 18.3714 35.6479 18.3714 35.6039 18.3626C35.4634 17.7127 34.8487 17.2648 34.1725 17.3439C33.4523 17.4229 32.9342 18.0728 33.0132 18.7929C33.1538 20.0487 34.2866 20.9972 35.6566 21.006H35.6654C37.0354 21.006 38.5284 20.0136 38.783 17.7918C39.0641 15.3943 37.2813 13.1197 34.717 12.6279C32.5127 12.2064 29.518 13.2251 28.35 17.5195C27.1644 21.8754 29.4477 26.6177 31.4149 29.6475C27.8055 31.8693 25.4344 35.6193 25.4344 39.8698C25.4344 41.6964 25.8735 43.4265 26.6638 44.9897H39.7754V61.3067C39.5646 61.3155 39.3626 61.3067 39.1607 61.2979C38.9587 61.2891 38.7567 61.2803 38.5547 61.254V46.2016H20.6394L28.0514 54.0966L25.1446 56.538C24.9689 56.4239 24.7933 56.3009 24.6264 56.1692C24.4596 56.055 24.2927 55.9321 24.1346 55.8004C17.8379 50.9527 13.7806 43.3387 13.7806 34.7938C13.7806 20.1717 25.6803 8.27205 40.3111 8.27205C54.942 8.27205 66.8328 20.1717 66.8328 34.7938C66.8328 43.9534 62.1696 52.0504 55.0825 56.8103ZM47.0557 39.5097C47.8988 39.5097 48.575 38.5612 48.575 37.3844C48.575 36.7346 48.3642 36.1462 48.0217 35.7598L49.4883 34.9079C50.9022 37.3581 50.7002 40.1684 49.0317 41.1256C47.3894 42.0828 44.8865 40.8885 43.4551 38.4734L45.554 37.2088C45.554 37.2615 45.554 37.323 45.554 37.3844C45.554 38.5612 46.2302 39.5097 47.0645 39.5097H47.0557ZM34.2252 39.8698C35.3054 39.8698 36.1836 38.6666 36.2011 37.1825L38.7479 38.1485C37.7555 40.7743 35.0331 42.2146 32.6883 41.3539C30.3172 40.4933 29.1667 37.5952 30.1327 34.9431L32.4951 35.8037C32.337 36.1989 32.2404 36.6643 32.2404 37.1473C32.2404 38.6491 33.1274 39.8698 34.2252 39.8698Z" fill="url(#paint0_radial_194_1147)"/>
<defs>
<radialGradient id="paint0_radial_194_1147" cx="0" cy="0" r="1" gradientUnits="userSpaceOnUse" gradientTransform="translate(70.0856 8.43255) rotate(133.081) scale(134.226 75.7314)">
<stop stop-color="#FF9900"/>
<stop offset="0.410318" stop-color="#D0530D"/>
<stop offset="0.800712" stop-color="#493232"/>
</radialGradient>
</defs>
</svg>
