<svg xmlns="http://www.w3.org/2000/svg" width="33" height="31" fill="none"><path fill="#655768" d="m13.947 2.897-2.209.827a.45.45 0 0 0 0 .844l2.21.826.826 2.21a.45.45 0 0 0 .844 0l.826-2.21 2.21-.826a.45.45 0 0 0 0-.844l-2.21-.827-.826-2.209a.45.45 0 0 0-.844 0l-.827 2.21Zm13.286.31 2.027 2.029-6.434 6.428-2.028-2.027 6.435-6.43ZM4.882 25.56l13.93-13.93 2.027 2.028-13.93 13.93-2.027-2.028ZM25.24 1.22 2.895 23.566a2.819 2.819 0 0 0 0 3.98l2.028 2.027a2.819 2.819 0 0 0 3.979 0l22.345-22.35a2.819 2.819 0 0 0 0-3.98l-2.028-2.022a2.819 2.819 0 0 0-3.979 0ZM.633 7.263a.678.678 0 0 0-.44.633c0 .281.176.533.44.633l3.31 1.242 1.243 3.311c.1.264.352.44.633.44a.678.678 0 0 0 .633-.44l1.242-3.31 3.311-1.243c.264-.1.44-.352.44-.633a.678.678 0 0 0-.44-.633l-3.31-1.242L6.451 2.71a.678.678 0 0 0-.633-.44.678.678 0 0 0-.633.44L3.944 6.02.633 7.264ZM21.26 22.265a.678.678 0 0 0-.44.633c0 .282.176.534.44.633l3.31 1.243 1.243 3.31c.1.264.352.44.633.44a.678.678 0 0 0 .633-.44l1.243-3.31 3.31-1.243c.264-.1.44-.351.44-.633a.678.678 0 0 0-.44-.633l-3.31-1.242-1.243-3.311a.678.678 0 0 0-.633-.44.678.678 0 0 0-.633.44l-1.242 3.311-3.311 1.242Z"/></svg>