<svg xmlns="http://www.w3.org/2000/svg" width="31" height="31" fill="none"><path fill="#655768" d="M11.792 15.27a7.675 7.675 0 0 1 2.05 1.476c.604.609 1.102 1.3 1.477 2.05 6.199-1.757 9.181-4.658 10.634-7.382 1.465-2.742 1.6-5.718 1.29-8.068-2.35-.31-5.327-.176-8.069 1.29-2.724 1.452-5.624 4.44-7.382 10.633Zm10.904 3.41v4.815a4.21 4.21 0 0 1-2.069 3.627l-5.185 3.076a1.406 1.406 0 0 1-2.12-1.213v-6.72a4.998 4.998 0 0 0-4.998-4.998h-6.72c-.505 0-.973-.27-1.225-.709a1.4 1.4 0 0 1 .011-1.412l3.076-5.185a4.217 4.217 0 0 1 3.627-2.068h4.816C16.702.17 24.15-.105 28.55.703c.68.124 1.213.657 1.336 1.337.808 4.4.533 11.846-7.19 16.64ZM1.856 30.384a1.594 1.594 0 0 1-1.653-1.652c.053-2.209.445-6.093 2.455-8.097a5.156 5.156 0 0 1 7.294 0 5.156 5.156 0 0 1 0 7.294c-2.003 2.01-5.888 2.403-8.097 2.455Zm2.94-3.779c.75-.04 1.828-.216 2.42-.802a1.719 1.719 0 0 0 0-2.426 1.718 1.718 0 0 0-2.425 0c-.592.592-.762 1.67-.803 2.42a.763.763 0 0 0 .814.814l-.006-.006ZM19.415 8.83a2.343 2.343 0 1 1 4.686 0 2.343 2.343 0 0 1-4.686 0Z"/></svg>