<svg width="121" height="121" viewBox="0 0 121 121" fill="none" xmlns="http://www.w3.org/2000/svg">
<rect x="0.5" y="0.89502" width="120" height="120" rx="60" fill="#FFBCBC"/>
<g clip-path="url(#clip0_199_3032)">
<path d="M89.75 60.895C89.75 77.0528 76.6578 90.145 60.5 90.145C51.3031 90.145 43.0906 85.8981 37.7188 79.2466C37.1703 81.6513 35.8344 83.7466 34.0062 85.2653C40.5875 92.4231 50.0234 96.895 60.5 96.895C80.3844 96.895 96.5 80.7794 96.5 60.895C96.5 41.0106 80.3844 24.895 60.5 24.895C40.6156 24.895 24.5 41.0106 24.5 60.895C24.5 61.0497 24.5 61.2044 24.5 61.3591C26.7922 60.3606 29.6187 60.9653 31.25 63.1591L31.3484 63.2856C31.2781 62.4981 31.25 61.6966 31.25 60.895C31.25 44.7372 44.3422 31.645 60.5 31.645C76.6578 31.645 89.75 44.7372 89.75 60.895ZM25.0203 66.9981C23.0094 69.7685 20 74.3528 20 76.7856C20 80.4419 23.0234 83.395 26.75 83.395C28.4375 83.395 29.9844 82.7903 31.1797 81.7778C32.6 80.5685 33.5 78.7825 33.5 76.7856C33.5 73.9731 29.5063 68.2919 27.65 65.8591C27.2 65.2403 26.3 65.2403 25.85 65.8591C25.6109 66.1825 25.3156 66.5622 25.0203 66.9981ZM70.6812 82.481C72.0453 81.2153 72.1156 79.0778 70.85 77.7138C68.8391 75.5622 65.3656 73.27 60.5 73.27C55.6344 73.27 52.1609 75.5622 50.1641 77.7138C48.8984 79.0778 48.9688 81.2153 50.3328 82.481C51.6969 83.7466 53.8344 83.6763 55.1 82.3122C56.1406 81.2013 57.9125 80.006 60.5141 80.006C63.1156 80.006 64.8875 81.2013 65.9281 82.3122C67.1938 83.6763 69.3312 83.7466 70.6953 82.481H70.6812ZM71.6938 67.645C72.8872 67.645 74.0318 67.1709 74.8757 66.327C75.7196 65.4831 76.1938 64.3385 76.1938 63.145C76.1938 61.9515 75.7196 60.807 74.8757 59.963C74.0318 59.1191 72.8872 58.645 71.6938 58.645C70.5003 58.645 69.3557 59.1191 68.5118 59.963C67.6679 60.807 67.1938 61.9515 67.1938 63.145C67.1938 64.3385 67.6679 65.4831 68.5118 66.327C69.3557 67.1709 70.5003 67.645 71.6938 67.645ZM44.6938 63.145C44.6938 64.3385 45.1679 65.4831 46.0118 66.327C46.8557 67.1709 48.0003 67.645 49.1938 67.645C50.3872 67.645 51.5318 67.1709 52.3757 66.327C53.2196 65.4831 53.6938 64.3385 53.6938 63.145C53.6938 61.9515 53.2196 60.807 52.3757 59.963C51.5318 59.1191 50.3872 58.645 49.1938 58.645C48.0003 58.645 46.8557 59.1191 46.0118 59.963C45.1679 60.807 44.6938 61.9515 44.6938 63.145ZM51.9641 48.9841C52.8359 48.1122 52.8359 46.6778 51.9641 45.806C51.0922 44.9341 49.6578 44.9341 48.7859 45.806L47.7453 46.8466C45.0875 49.5044 41.6703 51.2622 37.9719 51.8669L37.6203 51.9231C36.3969 52.1341 35.5672 53.2872 35.7641 54.5106C35.9609 55.7341 37.1281 56.5638 38.3516 56.3669L38.7031 56.3106C43.3297 55.5372 47.6047 53.3435 50.9094 50.0247L51.95 48.9841H51.9641ZM69.0359 45.806C68.1641 46.6778 68.1641 48.1122 69.0359 48.9841L70.0766 50.0247C73.3953 53.3435 77.6562 55.5372 82.2828 56.3106L82.6344 56.3669C83.8578 56.5778 85.025 55.7481 85.2219 54.5106C85.4187 53.2731 84.6031 52.12 83.3656 51.9231L83.0141 51.8669C79.3156 51.2481 75.8984 49.4903 73.2406 46.8466L72.2 45.806C71.3281 44.9341 69.8937 44.9341 69.0219 45.806H69.0359Z" fill="#750000"/>
</g>
<defs>
<clipPath id="clip0_199_3032">
<rect width="81" height="72" fill="white" transform="translate(20 24.895)"/>
</clipPath>
</defs>
</svg>
