<svg width="31" height="31" viewBox="0 0 31 31" fill="none" xmlns="http://www.w3.org/2000/svg">
<path d="M15.8267 0.416748C18.9318 0.416748 21.4511 2.93603 21.4511 6.0412V6.25212C21.4511 7.17195 20.707 7.91602 19.7872 7.91602H11.8661C10.9463 7.91602 10.2022 7.17195 10.2022 6.25212V6.0412C10.2022 2.93603 12.7215 0.416748 15.8267 0.416748ZM3.11306 6.45132C3.66379 5.90059 4.55432 5.90059 5.09919 6.45132L9.34097 10.6931C10.2784 10.1248 11.374 9.79083 12.5457 9.79083H19.1076C20.2794 9.79083 21.3749 10.1248 22.3065 10.6989L26.5483 6.45132C27.099 5.90059 27.9895 5.90059 28.5344 6.45132C29.0793 7.00204 29.0851 7.89258 28.5344 8.43745L24.2926 12.6792C24.8668 13.6166 25.2007 14.7122 25.2007 15.884H29.4191C30.1983 15.884 30.8252 16.5109 30.8252 17.2901C30.8252 18.0693 30.1983 18.6962 29.4191 18.6962H25.2007V19.1649C25.2007 20.7585 24.8023 22.2584 24.0993 23.5766L28.5403 28.0117C29.091 28.5624 29.091 29.453 28.5403 29.9978C27.9895 30.5427 27.099 30.5486 26.5541 29.9978L22.4002 25.844C20.707 27.5137 18.387 28.539 15.8267 28.539C13.2664 28.539 10.9463 27.5137 9.25308 25.8498L5.10505 30.0037C4.55432 30.5544 3.66379 30.5544 3.11892 30.0037C2.57405 29.453 2.56819 28.5624 3.11892 28.0176L7.55989 23.5766C6.85097 22.2584 6.45258 20.7585 6.45258 19.1649V18.6962H2.23424C1.45502 18.6962 0.828125 18.0693 0.828125 17.2901C0.828125 16.5109 1.45502 15.884 2.23424 15.884H6.45258C6.45258 14.7122 6.78653 13.6166 7.36069 12.6851L3.11306 8.44331C2.56233 7.89258 2.56233 7.00204 3.11306 6.45717V6.45132ZM9.2648 15.884V19.1649C9.2648 22.3052 11.4736 24.93 14.4205 25.5744V16.8214C14.4205 16.0422 15.0474 15.4153 15.8267 15.4153C16.6059 15.4153 17.2328 16.0422 17.2328 16.8214V25.5744C20.1798 24.93 22.3885 22.3052 22.3885 19.1649V15.884C22.3885 14.0736 20.918 12.6031 19.1076 12.6031H12.5457C10.7354 12.6031 9.2648 14.0736 9.2648 15.884Z" fill="#655768"/>
</svg>
