<svg xmlns="http://www.w3.org/2000/svg" width="31" height="31" fill="none"><path fill="#655768" d="M27.38 15.395a12.188 12.188 0 1 0-24.374 0 12.188 12.188 0 0 0 24.375 0Zm-27.187 0a15 15 0 1 1 30 0 15 15 0 0 1-30 0Zm9.95-5.314a3.287 3.287 0 0 1 3.093-2.186h3.416a3.697 3.697 0 0 1 3.698 3.697 3.709 3.709 0 0 1-1.858 3.211L16.6 15.887a1.41 1.41 0 0 1-1.407 1.383c-.779 0-1.406-.627-1.406-1.406v-.791c0-.504.27-.967.71-1.219l2.595-1.488a.886.886 0 0 0-.44-1.653h-3.416c-.199 0-.375.123-.44.31l-.023.071a1.406 1.406 0 0 1-1.793.856 1.411 1.411 0 0 1-.855-1.793l.023-.07-.005-.006Zm3.175 10.939a1.875 1.875 0 1 1 3.75 0 1.875 1.875 0 0 1-3.75 0Z"/></svg>