<svg width="33" height="31" viewBox="0 0 33 31" fill="none" xmlns="http://www.w3.org/2000/svg">
<path d="M14.5821 2.91907L12.3728 3.74536C12.197 3.80982 12.0798 3.97977 12.0798 4.1673C12.0798 4.35483 12.197 4.52477 12.3728 4.58923L14.5821 5.41553L15.4084 7.62484C15.4728 7.80064 15.6428 7.91785 15.8303 7.91785C16.0179 7.91785 16.1878 7.80064 16.2523 7.62484L17.0786 5.41553L19.2879 4.58923C19.4637 4.52477 19.5809 4.35483 19.5809 4.1673C19.5809 3.97977 19.4637 3.80982 19.2879 3.74536L17.0786 2.91907L16.2523 0.70976C16.1878 0.533953 16.0179 0.416748 15.8303 0.416748C15.6428 0.416748 15.4728 0.533953 15.4084 0.70976L14.5821 2.91907ZM27.8672 3.22966L29.8949 5.2573L23.4603 11.686L21.4327 9.65834L27.8672 3.22966ZM5.51631 25.5806L19.4461 11.6508L21.4737 13.6785L7.54395 27.6082L5.51631 25.5806ZM25.8748 1.24304L3.52969 23.5881C2.43383 24.684 2.43383 26.4655 3.52969 27.5672L5.55733 29.5949C6.6532 30.6907 8.43471 30.6907 9.53643 29.5949L31.8815 7.24392C32.9774 6.14806 32.9774 4.36655 31.8815 3.26482L29.8539 1.24304C28.758 0.147177 26.9765 0.147177 25.8748 1.24304ZM1.26764 7.28494C1.00393 7.38457 0.828125 7.63656 0.828125 7.91785C0.828125 8.19914 1.00393 8.45113 1.26764 8.55075L4.57867 9.79312L5.82104 13.1042C5.92067 13.3679 6.17266 13.5437 6.45395 13.5437C6.73524 13.5437 6.98723 13.3679 7.08685 13.1042L8.32922 9.79312L11.6403 8.55075C11.904 8.45113 12.0798 8.19914 12.0798 7.91785C12.0798 7.63656 11.904 7.38457 11.6403 7.28494L8.32922 6.04257L7.08685 2.73154C6.98723 2.46783 6.73524 2.29202 6.45395 2.29202C6.17266 2.29202 5.92067 2.46783 5.82104 2.73154L4.57867 6.04257L1.26764 7.28494ZM21.8957 22.2871C21.632 22.3868 21.4561 22.6388 21.4561 22.92C21.4561 23.2013 21.632 23.4533 21.8957 23.5529L25.2067 24.7953L26.4491 28.1064C26.5487 28.3701 26.8007 28.5459 27.082 28.5459C27.3633 28.5459 27.6153 28.3701 27.7149 28.1064L28.9572 24.7953L32.2683 23.5529C32.532 23.4533 32.7078 23.2013 32.7078 22.92C32.7078 22.6388 32.532 22.3868 32.2683 22.2871L28.9572 21.0448L27.7149 17.7337C27.6153 17.47 27.3633 17.2942 27.082 17.2942C26.8007 17.2942 26.5487 17.47 26.4491 17.7337L25.2067 21.0448L21.8957 22.2871Z" fill="#655768"/>
</svg>
