<svg width="46" height="41" viewBox="0 0 46 41" fill="none" xmlns="http://www.w3.org/2000/svg">
<path d="M18.1113 0.729248C15.9932 0.729248 14.1123 2.08276 13.4443 4.09546L12.6885 6.35425H6.2373C3.13477 6.35425 0.612305 8.87671 0.612305 11.9792V34.4792C0.612305 37.5818 3.13477 40.1042 6.2373 40.1042H39.9873C43.0898 40.1042 45.6123 37.5818 45.6123 34.4792V11.9792C45.6123 8.87671 43.0898 6.35425 39.9873 6.35425H33.5361L32.7803 4.09546C32.1123 2.08276 30.2314 0.729248 28.1133 0.729248H18.1113ZM17.4434 5.4314C17.54 5.14136 17.8037 4.948 18.1113 4.948H28.1133C28.4121 4.948 28.6846 5.14136 28.7812 5.4314L30.0117 9.13159C30.3018 9.99292 31.1016 10.573 32.0156 10.573H39.9873C40.7607 10.573 41.3936 11.2058 41.3936 11.9792V34.4792C41.3936 35.2527 40.7607 35.8855 39.9873 35.8855H6.2373C5.46387 35.8855 4.83105 35.2527 4.83105 34.4792V11.9792C4.83105 11.2058 5.46387 10.573 6.2373 10.573H14.209C15.1143 10.573 15.9229 9.99292 16.2129 9.13159L17.4434 5.4314ZM23.1123 33.073C24.405 33.073 25.685 32.8184 26.8793 32.3237C28.0736 31.829 29.1588 31.1039 30.0729 30.1898C30.987 29.2758 31.712 28.1906 32.2067 26.9963C32.7014 25.802 32.9561 24.5219 32.9561 23.2292C32.9561 21.9365 32.7014 20.6565 32.2067 19.4622C31.712 18.2679 30.987 17.1827 30.0729 16.2687C29.1588 15.3546 28.0736 14.6295 26.8793 14.1348C25.685 13.6401 24.405 13.3855 23.1123 13.3855C21.8196 13.3855 20.5396 13.6401 19.3453 14.1348C18.151 14.6295 17.0658 15.3546 16.1517 16.2687C15.2376 17.1827 14.5126 18.2679 14.0179 19.4622C13.5232 20.6565 13.2686 21.9365 13.2686 23.2292C13.2686 24.5219 13.5232 25.802 14.0179 26.9963C14.5126 28.1906 15.2376 29.2758 16.1517 30.1898C17.0658 31.1039 18.151 31.829 19.3453 32.3237C20.5396 32.8184 21.8196 33.073 23.1123 33.073ZM17.4873 23.2292C17.4873 21.7374 18.0799 20.3067 19.1348 19.2518C20.1897 18.1969 21.6205 17.6042 23.1123 17.6042C24.6041 17.6042 26.0349 18.1969 27.0898 19.2518C28.1447 20.3067 28.7373 21.7374 28.7373 23.2292C28.7373 24.7211 28.1447 26.1518 27.0898 27.2067C26.0349 28.2616 24.6041 28.8542 23.1123 28.8542C21.6205 28.8542 20.1897 28.2616 19.1348 27.2067C18.0799 26.1518 17.4873 24.7211 17.4873 23.2292Z" fill="url(#paint0_linear_1627_5670)"/>
<defs>
<linearGradient id="paint0_linear_1627_5670" x1="44.3895" y1="40.1043" x2="-0.445076" y2="33.0338" gradientUnits="userSpaceOnUse">
<stop offset="0.0208784" stop-color="#9D3C27"/>
<stop offset="1" stop-color="#E28800"/>
</linearGradient>
</defs>
</svg>
