<svg xmlns="http://www.w3.org/2000/svg" width="46" height="41" fill="none"><path fill="#655768" d="M18.477.708c-2.119 0-4 1.353-4.667 3.366l-.756 2.259H6.603a5.63 5.63 0 0 0-5.625 5.624v22.5a5.63 5.63 0 0 0 5.625 5.626h33.75a5.63 5.63 0 0 0 5.624-5.625v-22.5a5.63 5.63 0 0 0-5.624-5.625H33.9l-.756-2.26A4.914 4.914 0 0 0 28.478.709H18.477Zm-.668 4.702a.7.7 0 0 1 .668-.484h10.002c.298 0 .57.194.668.484l1.23 3.7a2.109 2.109 0 0 0 2.004 1.441h7.971a1.41 1.41 0 0 1 1.407 1.406v22.5a1.41 1.41 0 0 1-1.407 1.407H6.602a1.41 1.41 0 0 1-1.406-1.406v-22.5a1.41 1.41 0 0 1 1.407-1.407h7.971c.905 0 1.714-.58 2.004-1.441l1.23-3.7Zm5.668 27.641a9.844 9.844 0 1 0 0-19.688 9.844 9.844 0 0 0 0 19.688Zm-5.625-9.844a5.625 5.625 0 1 1 11.25 0 5.625 5.625 0 0 1-11.25 0Z"/></svg>