<svg width="277" height="120" viewBox="0 0 277 120" fill="none" xmlns="http://www.w3.org/2000/svg">
<rect x="78.5" width="120" height="120" rx="60" fill="#E4F59F"/>
<path d="M130.337 59.698C132.151 60.598 133.81 61.7791 135.258 63.2415C136.707 64.704 137.902 66.3632 138.802 68.1631C153.679 63.9446 160.837 56.9841 164.324 50.4455C167.839 43.8646 168.163 36.7213 167.417 31.0826C161.779 30.3373 154.635 30.6608 148.055 34.1762C141.516 37.6634 134.555 44.8349 130.337 59.698ZM156.506 67.8819V79.4405C156.506 83.0122 154.621 86.3307 151.542 88.1447L139.097 95.527C138.057 96.1458 136.763 96.1598 135.708 95.5552C134.654 94.9505 134.007 93.8396 134.007 92.6163V76.4876C134.007 73.3097 132.741 70.2583 130.492 68.0084C128.242 65.7586 125.19 64.493 122.012 64.493H105.884C104.674 64.493 103.549 63.8462 102.945 62.7916C102.34 61.7369 102.354 60.4433 102.973 59.4027L110.355 46.9582C112.183 43.8787 115.488 41.9944 119.059 41.9944H130.618C142.121 23.4612 159.993 22.8003 170.553 24.7408C172.184 25.0361 173.464 26.3157 173.759 27.9469C175.7 38.5071 175.039 56.3795 156.506 67.8819ZM106.488 95.977C104.239 96.0333 102.467 94.2615 102.523 92.0116C102.65 86.7104 103.592 77.3875 108.415 72.5785C113.252 67.7413 121.084 67.7413 125.922 72.5785C130.759 77.4157 130.759 85.248 125.922 90.0852C121.112 94.9083 111.79 95.8505 106.488 95.977ZM113.547 86.9073C115.347 86.8088 117.935 86.387 119.355 84.9808C120.958 83.3778 120.958 80.7623 119.355 79.1593C117.752 77.5563 115.136 77.5563 113.533 79.1593C112.113 80.5795 111.705 83.1669 111.607 84.9668C111.536 86.0917 112.436 86.9776 113.561 86.9213L113.547 86.9073ZM148.631 44.2443C148.631 42.7525 149.224 41.3219 150.278 40.2671C151.333 39.2122 152.764 38.6196 154.256 38.6196C155.747 38.6196 157.178 39.2122 158.233 40.2671C159.288 41.3219 159.88 42.7525 159.88 44.2443C159.88 45.736 159.288 47.1667 158.233 48.2215C157.178 49.2763 155.747 49.8689 154.256 49.8689C152.764 49.8689 151.333 49.2763 150.278 48.2215C149.224 47.1667 148.631 45.736 148.631 44.2443Z" fill="#1D1A1D"/>
<g clip-path="url(#clip0_198_2700)">
<path d="M70.9422 2.51016C70.7289 2.04531 70.2641 1.75 69.75 1.75C69.2359 1.75 68.7711 2.04531 68.5578 2.51016L65.3039 9.55391L58.2602 12.8078C57.7953 13.0211 57.5 13.4859 57.5 14C57.5 14.5141 57.7953 14.9789 58.2602 15.1922L65.3039 18.4461L68.5578 25.4898C68.7711 25.9547 69.2359 26.25 69.75 26.25C70.2641 26.25 70.7289 25.9547 70.9422 25.4898L74.1961 18.4461L81.2398 15.1922C81.7047 14.9789 82 14.5141 82 14C82 13.4859 81.7047 13.0211 81.2398 12.8078L74.1961 9.55391L70.9422 2.51016Z" fill="#487500"/>
</g>
<g clip-path="url(#clip1_198_2700)">
<path d="M51.6326 38.3319C51.5194 38.0853 51.2728 37.9286 51 37.9286C50.7272 37.9286 50.4806 38.0853 50.3674 38.3319L48.6408 42.0694L44.9033 43.796C44.6567 43.9092 44.5 44.1558 44.5 44.4286C44.5 44.7013 44.6567 44.948 44.9033 45.0612L48.6408 46.7877L50.3674 50.5252C50.4806 50.7719 50.7272 50.9286 51 50.9286C51.2728 50.9286 51.5194 50.7719 51.6326 50.5252L53.3592 46.7877L57.0967 45.0612C57.3433 44.948 57.5 44.7013 57.5 44.4286C57.5 44.1558 57.3433 43.9092 57.0967 43.796L53.3592 42.0694L51.6326 38.3319Z" fill="#487500"/>
</g>
<g clip-path="url(#clip2_198_2700)">
<path d="M215.022 90.1516C214.839 89.7531 214.441 89.5 214 89.5C213.559 89.5 213.161 89.7531 212.978 90.1516L210.189 96.1891L204.152 98.9781C203.753 99.1609 203.5 99.5594 203.5 100C203.5 100.441 203.753 100.839 204.152 101.022L210.189 103.811L212.978 109.848C213.161 110.247 213.559 110.5 214 110.5C214.441 110.5 214.839 110.247 215.022 109.848L217.811 103.811L223.848 101.022C224.247 100.839 224.5 100.441 224.5 100C224.5 99.5594 224.247 99.1609 223.848 98.9781L217.811 96.1891L215.022 90.1516Z" fill="#487500"/>
</g>
<defs>
<clipPath id="clip0_198_2700">
<rect width="24.5" height="28" fill="white" transform="translate(57.5)"/>
</clipPath>
<clipPath id="clip1_198_2700">
<rect width="13" height="14.8571" fill="white" transform="translate(44.5 37)"/>
</clipPath>
<clipPath id="clip2_198_2700">
<rect width="21" height="24" fill="white" transform="translate(203.5 88)"/>
</clipPath>
</defs>
</svg>
