<svg width="25" height="25" viewBox="0 0 25 25" fill="none" xmlns="http://www.w3.org/2000/svg">
<path d="M12.1724 0.850586C14.6567 0.850586 16.6724 2.86621 16.6724 5.35059V5.51934C16.6724 6.25527 16.0771 6.85059 15.3411 6.85059H9.00361C8.26768 6.85059 7.67236 6.25527 7.67236 5.51934V5.35059C7.67236 2.86621 9.68799 0.850586 12.1724 0.850586ZM2.11299 5.79121C2.69893 5.20527 3.65049 5.20527 4.23643 5.79121L7.23643 8.79121C7.26924 8.82402 7.29736 8.85684 7.32549 8.88965C7.99111 8.54746 8.75049 8.35527 9.55205 8.35527H14.7974C15.5989 8.35527 16.3536 8.54746 17.0239 8.88965C17.052 8.85684 17.0802 8.82402 17.113 8.79121L20.113 5.79121C20.6989 5.20527 21.6505 5.20527 22.2364 5.79121C22.8224 6.37715 22.8224 7.32871 22.2364 7.91465L19.2364 10.9146C19.2036 10.9475 19.1708 10.9756 19.138 11.0037C19.4286 11.5662 19.6114 12.1896 19.6583 12.8553H22.6724C23.5021 12.8553 24.1724 13.5256 24.1724 14.3553C24.1724 15.185 23.5021 15.8553 22.6724 15.8553H19.6724C19.6724 17.0084 19.4146 18.0959 18.9505 19.0709C19.0536 19.1318 19.1474 19.2068 19.2317 19.2959L22.2317 22.2959C22.8177 22.8818 22.8177 23.8334 22.2317 24.4193C21.6458 25.0053 20.6942 25.0053 20.1083 24.4193L17.1505 21.4615C16.0021 22.4834 14.5349 23.1584 12.9177 23.3178V12.1006C12.9177 11.6881 12.5802 11.3506 12.1677 11.3506C11.7552 11.3506 11.4177 11.6881 11.4177 12.1006V23.3131C9.80049 23.1537 8.3333 22.4787 7.18486 21.4568L4.23174 24.41C3.6458 24.9959 2.69424 24.9959 2.1083 24.41C1.52236 23.824 1.52236 22.8725 2.1083 22.2865L5.1083 19.2865C5.19736 19.1975 5.29111 19.1271 5.38955 19.0615C4.93018 18.0912 4.67236 17.0037 4.67236 15.8506H1.67236C0.842676 15.8506 0.172363 15.1803 0.172363 14.3506C0.172363 13.5209 0.842676 12.8506 1.67236 12.8506H4.68643C4.73799 12.1896 4.9208 11.5615 5.20674 10.999C5.17393 10.9709 5.14111 10.9428 5.1083 10.91L2.1083 7.90996C1.52236 7.32402 1.52236 6.37246 2.1083 5.78652L2.11299 5.79121Z" fill="white"/>
</svg>
