<svg width="31" height="31" viewBox="0 0 31 31" fill="none" xmlns="http://www.w3.org/2000/svg">
<path d="M12.4268 15.2909C13.1826 15.6659 13.874 16.1581 14.4775 16.7674C15.081 17.3767 15.579 18.0681 15.954 18.818C22.1528 17.0603 25.135 14.1601 26.5881 11.4357C28.0528 8.69367 28.1876 5.7173 27.877 3.36783C25.5276 3.0573 22.5512 3.19206 19.8092 4.65682C17.0847 6.10985 14.1845 9.09795 12.4268 15.2909ZM23.3304 18.7009V23.517C23.3304 25.0052 22.5453 26.3879 21.2622 27.1437L16.077 30.2197C15.6434 30.4775 15.1044 30.4833 14.665 30.2314C14.2255 29.9795 13.956 29.5166 13.956 29.0069V22.2866C13.956 20.9624 13.4287 19.691 12.4913 18.7536C11.5538 17.8162 10.2824 17.2888 8.95829 17.2888H2.23801C1.73413 17.2888 1.26541 17.0193 1.01347 16.5799C0.761536 16.1405 0.767395 15.6014 1.02519 15.1679L4.10117 9.98266C4.86284 8.69953 6.23971 7.91442 7.7279 7.91442H12.544C17.3367 0.192248 24.7835 -0.0831252 29.1836 0.725418C29.8632 0.848458 30.3964 1.38163 30.5195 2.06127C31.328 6.46139 31.0526 13.9082 23.3304 18.7009ZM2.48994 30.4072C1.5525 30.4306 0.814267 29.6924 0.837703 28.7549C0.890434 26.5461 1.28299 22.6616 3.29263 20.6578C5.30813 18.6423 8.5716 18.6423 10.5871 20.6578C12.6026 22.6733 12.6026 25.9367 10.5871 27.9522C8.58332 29.9619 4.69879 30.3544 2.48994 30.4072ZM5.43117 26.6281C6.18112 26.5871 7.25918 26.4113 7.85094 25.8254C8.51887 25.1575 8.51887 24.0677 7.85094 23.3998C7.18301 22.7319 6.09324 22.7319 5.42531 23.3998C4.83355 23.9916 4.66364 25.0696 4.62262 25.8196C4.59333 26.2883 4.96831 26.6574 5.43703 26.634L5.43117 26.6281ZM20.0494 8.85187C20.0494 8.2303 20.2963 7.6342 20.7358 7.19469C21.1753 6.75518 21.7714 6.50826 22.393 6.50826C23.0146 6.50826 23.6107 6.75518 24.0502 7.19469C24.4897 7.6342 24.7366 8.2303 24.7366 8.85187C24.7366 9.47343 24.4897 10.0695 24.0502 10.509C23.6107 10.9486 23.0146 11.1955 22.393 11.1955C21.7714 11.1955 21.1753 10.9486 20.7358 10.509C20.2963 10.0695 20.0494 9.47343 20.0494 8.85187Z" fill="#655768"/>
</svg>
