<svg width="31" height="31" viewBox="0 0 31 31" fill="none" xmlns="http://www.w3.org/2000/svg">
<path d="M28.0156 15.4167C28.0156 12.1844 26.7316 9.08448 24.446 6.79888C22.1604 4.51328 19.0605 3.22925 15.8281 3.22925C12.5958 3.22925 9.49586 4.51328 7.21026 6.79888C4.92466 9.08448 3.64062 12.1844 3.64062 15.4167C3.64062 18.6491 4.92466 21.749 7.21026 24.0346C9.49586 26.3202 12.5958 27.6042 15.8281 27.6042C19.0605 27.6042 22.1604 26.3202 24.446 24.0346C26.7316 21.749 28.0156 18.6491 28.0156 15.4167ZM0.828125 15.4167C0.828125 11.4385 2.40848 7.62319 5.22152 4.81015C8.03457 1.9971 11.8499 0.416748 15.8281 0.416748C19.8064 0.416748 23.6217 1.9971 26.4347 4.81015C29.2478 7.62319 30.8281 11.4385 30.8281 15.4167C30.8281 19.395 29.2478 23.2103 26.4347 26.0233C23.6217 28.8364 19.8064 30.4167 15.8281 30.4167C11.8499 30.4167 8.03457 28.8364 5.22152 26.0233C2.40848 23.2103 0.828125 19.395 0.828125 15.4167ZM10.7773 10.1023C11.2402 8.79565 12.4824 7.91675 13.8711 7.91675H17.2871C19.332 7.91675 20.9844 9.57495 20.9844 11.614C20.9844 12.9382 20.2754 14.1628 19.127 14.825L17.2344 15.9089C17.2227 16.6707 16.5957 17.2917 15.8281 17.2917C15.0488 17.2917 14.4219 16.6648 14.4219 15.8855V15.0945C14.4219 14.5906 14.6914 14.1277 15.1309 13.8757L17.7266 12.3875C18.002 12.2292 18.1719 11.9363 18.1719 11.6199C18.1719 11.1277 17.7734 10.7351 17.2871 10.7351H13.8711C13.6719 10.7351 13.4961 10.8582 13.4316 11.0457L13.4082 11.116C13.1504 11.8484 12.3418 12.2292 11.6152 11.9714C10.8887 11.7136 10.502 10.905 10.7598 10.1785L10.7832 10.1082L10.7773 10.1023ZM13.9531 21.0417C13.9531 20.5445 14.1507 20.0676 14.5023 19.7159C14.8539 19.3643 15.3308 19.1667 15.8281 19.1667C16.3254 19.1667 16.8023 19.3643 17.1539 19.7159C17.5056 20.0676 17.7031 20.5445 17.7031 21.0417C17.7031 21.539 17.5056 22.0159 17.1539 22.3676C16.8023 22.7192 16.3254 22.9167 15.8281 22.9167C15.3308 22.9167 14.8539 22.7192 14.5023 22.3676C14.1507 22.0159 13.9531 21.539 13.9531 21.0417Z" fill="#655768"/>
</svg>
