<svg xmlns="http://www.w3.org/2000/svg" width="31" height="31" fill="none"><path fill="#655768" d="M15.192.395a5.626 5.626 0 0 1 5.624 5.624v.211c0 .92-.744 1.664-1.664 1.664h-7.92c-.92 0-1.665-.744-1.665-1.664v-.21A5.626 5.626 0 0 1 15.192.394ZM2.478 6.43a1.4 1.4 0 0 1 1.986 0l4.242 4.241a6.165 6.165 0 0 1 3.205-.902h6.562a6.08 6.08 0 0 1 3.199.908l4.241-4.247A1.405 1.405 0 0 1 27.9 8.416l-4.241 4.242c.574.937.908 2.033.908 3.204h4.218c.78 0 1.406.627 1.406 1.406 0 .78-.627 1.406-1.406 1.406h-4.218v.47a9.342 9.342 0 0 1-1.101 4.41l4.44 4.436a1.406 1.406 0 0 1-1.986 1.986l-4.154-4.154a9.327 9.327 0 0 1-6.573 2.695 9.347 9.347 0 0 1-6.574-2.689L4.47 29.982a1.406 1.406 0 0 1-1.986-1.986l4.441-4.441a9.278 9.278 0 0 1-1.107-4.412v-.469H1.599c-.779 0-1.406-.626-1.406-1.406 0-.779.627-1.406 1.406-1.406h4.219c0-1.171.334-2.267.908-3.199L2.478 8.422a1.4 1.4 0 0 1 0-1.987V6.43Zm6.152 9.432v3.281a6.566 6.566 0 0 0 5.156 6.41V16.8c0-.78.627-1.406 1.406-1.406.78 0 1.406.626 1.406 1.406v8.753a6.566 6.566 0 0 0 5.156-6.41v-3.28c0-1.811-1.47-3.282-3.281-3.282H11.91a3.283 3.283 0 0 0-3.281 3.281Z"/></svg>